# xmcd CD database file
#
# Track frame offsets:
#	150
#	18987
#	56528
#	79011
#	100526
#	116951
#	140351
#	158295
#	177821
#	205114
#	214951
#	230864
#	253896
#	270194
#	291088
#	304280
#	333315
#
# Disc length: 4741 seconds
#
# Revision: 0
# Processed by: cddbd v1.5.2PL0 Copyright (c) Steve Scherf et al.
# Submitted via: CDex 1.51
#
DISCID=eb128311
DTITLE=Peter Baumann - Conny's Jazz Night
DYEAR=2003
DGENRE=Jazz
TTITLE0=Almost Like Being In Love
TTITLE1=Loverman
TTITLE2=Lady Be Good
TTITLE3=Crazy He Calls Me
TTITLE4=I'd Rather Drink Muddy Water
TTITLE5=Stormy Weather
TTITLE6=Teach Me Tonight
TTITLE7=Summerimte
TTITLE8=I Want A Little Girl
TTITLE9=Memories Of You
TTITLE10=Do Nothing Till You Here From Me
TTITLE11=The Virgin's Voice
TTITLE12=Allright, Okay
TTITLE13=Moonlight In Vermont
TTITLE14=I Can't Believe That You're In Love
TTITLE15=Cry Me A River
TTITLE16=The Christmas Song
EXTD=YEAR: 2003
EXTT0=
EXTT1=
EXTT2=
EXTT3=
EXTT4=
EXTT5=
EXTT6=
EXTT7=
EXTT8=
EXTT9=
EXTT10=
EXTT11=
EXTT12=
EXTT13=
EXTT14=
EXTT15=
EXTT16=
PLAYORDER=
